# xmcd CD database file
#
# Track frame offsets:
#	150
#	15467
#	50411
#	73895
#	94995
#	122319
#	151062
#	165975
#	190562
#	202730
#	222974
#	229727
#	256046
#	260368
#
# Disc length: 3648 seconds
#
# Revision: 1
# Processed by: cddbd v1.5.2PL0 Copyright (c) Steve Scherf et al.
# Submitted via: CDex 1.70beta2
#
DISCID=a80e3e0e
DTITLE=Yaron Herman Trio - Follow The White Rabbit
DYEAR=2010
DGENRE=Jazz
TTITLE0=Follow The White Rabbit
TTITLE1=Saturn Returns
TTITLE2=Trylon
TTITLE3=Heart Shaped Box
TTITLE4=Ein Gedi
TTITLE5=The Mountain in G Minor
TTITLE6=Cadenza
TTITLE7=Airlines
TTITLE8=Aladins Psychedelic Lamp
TTITLE9=Baby Mine
TTITLE10=White Rabbit Robot
TTITLE11=Clusterphobic
TTITLE12=Wonderland
TTITLE13=No Surprises
EXTD=YEAR: 2010
EXTT0=
EXTT1=
EXTT2=
EXTT3=
EXTT4=
EXTT5=
EXTT6=
EXTT7=
EXTT8=
EXTT9=
EXTT10=
EXTT11=
EXTT12=
EXTT13=
PLAYORDER=
